<svg width="367" height="542" viewBox="0 0 367 542" fill="none" xmlns="http://www.w3.org/2000/svg">
<path fill-rule="evenodd" clip-rule="evenodd" d="M335.255 402.589C352.67 325.622 304.395 249.11 227.428 231.695C150.462 214.279 73.9498 262.554 56.534 339.521C39.1183 416.487 87.3937 492.999 164.36 510.415C241.327 527.831 317.839 479.555 335.255 402.589ZM290.151 391.943C301.971 339.708 269.208 287.781 216.972 275.961C164.736 264.141 112.809 296.905 100.99 349.14C89.1699 401.376 121.933 453.303 174.169 465.123C226.405 476.942 278.332 444.179 290.151 391.943Z" fill="url(#paint0_linear_47_52)"/>
<g filter="url(#filter0_i_47_52)">
<path fill-rule="evenodd" clip-rule="evenodd" d="M16.4251 98.1527C7.35379 152.361 43.9445 203.659 98.1527 212.73C152.361 221.802 203.659 185.211 212.731 131.003C221.802 76.7947 185.211 25.4964 131.003 16.4251C76.7947 7.35375 25.4965 43.9444 16.4251 98.1527Z" fill="url(#paint1_linear_47_52)"/>
</g>
<defs>
<filter id="filter0_i_47_52" x="15.0447" y="15.0447" width="199.066" height="203.066" filterUnits="userSpaceOnUse" color-interpolation-filters="sRGB">
<feFlood flood-opacity="0" result="BackgroundImageFix"/>
<feBlend mode="normal" in="SourceGraphic" in2="BackgroundImageFix" result="shape"/>
<feColorMatrix in="SourceAlpha" type="matrix" values="0 0 0 0 0 0 0 0 0 0 0 0 0 0 0 0 0 0 127 0" result="hardAlpha"/>
<feOffset dy="4"/>
<feGaussianBlur stdDeviation="2"/>
<feComposite in2="hardAlpha" operator="arithmetic" k2="-1" k3="1"/>
<feColorMatrix type="matrix" values="0 0 0 0 0 0 0 0 0 0 0 0 0 0 0 0 0 0 0.25 0"/>
<feBlend mode="normal" in2="shape" result="effect1_innerShadow_47_52"/>
</filter>
<linearGradient id="paint0_linear_47_52" x1="190.288" y1="516.282" x2="170.712" y2="218.861" gradientUnits="userSpaceOnUse">
<stop stop-color="#DDEF06"/>
<stop offset="0.492708" stop-color="#FFB800"/>
<stop offset="0.977083" stop-color="#FF3D00"/>
</linearGradient>
<linearGradient id="paint1_linear_47_52" x1="112.742" y1="13.3693" x2="138.099" y2="219.415" gradientUnits="userSpaceOnUse">
<stop stop-color="#DDEF06"/>
<stop offset="0.492708" stop-color="#FFB800"/>
<stop offset="0.977083" stop-color="#FF3D00"/>
</linearGradient>
</defs>
</svg>
