<svg width="59" height="66" viewBox="0 0 59 66" fill="none" xmlns="http://www.w3.org/2000/svg">
<g id="Instagram">
<g id="Instagram_2">
<g id="back">
<path id="path-1" d="M0 33C0 14.7746 13.0667 0 29.1852 0C45.3037 0 58.3704 14.7746 58.3704 33C58.3704 51.2254 45.3037 66 29.1852 66C13.0667 66 0 51.2254 0 33Z" fill="#0F0F0F"/>
</g>
<g id="Shape Clipped">
<mask id="mask0_37_224" style="mask-type:luminance" maskUnits="userSpaceOnUse" x="0" y="0" width="59" height="66">
<path id="path-1_2" fill-rule="evenodd" clip-rule="evenodd" d="M0 33C0 14.7746 13.0667 0 29.1852 0C45.3037 0 58.3704 14.7746 58.3704 33C58.3704 51.2254 45.3037 66 29.1852 66C13.0667 66 0 51.2254 0 33Z" fill="white"/>
</mask>
<g mask="url(#mask0_37_224)">
<path id="Shape" fill-rule="evenodd" clip-rule="evenodd" d="M29.1866 15.4C24.9593 15.4 24.4288 15.4209 22.7684 15.5063C21.1113 15.5921 19.9802 15.8888 18.9905 16.324C17.9668 16.7735 17.0983 17.3749 16.2331 18.3535C15.3673 19.3318 14.8355 20.3138 14.4366 21.471C14.0507 22.5904 13.7881 23.8697 13.7135 25.7427C13.6392 27.62 13.6198 28.2203 13.6198 33.0002C13.6198 37.7801 13.6386 38.3781 13.7138 40.2555C13.79 42.1292 14.0523 43.4081 14.4369 44.5272C14.8348 45.6848 15.3667 46.6667 16.2322 47.645C17.097 48.624 17.9655 49.2268 18.9886 49.6764C19.9789 50.1116 21.1104 50.4082 22.7671 50.494C24.4275 50.5795 24.9577 50.6004 29.1847 50.6004C33.4124 50.6004 33.9413 50.5795 35.6016 50.494C37.2587 50.4082 38.3911 50.1116 39.3815 49.6764C40.4049 49.2268 41.272 48.624 42.1369 47.645C43.0027 46.6667 43.5346 45.6848 43.9334 44.5276C44.3161 43.4081 44.5787 42.1288 44.6566 40.2559C44.7312 38.3785 44.7506 37.7801 44.7506 33.0002C44.7506 28.2203 44.7312 27.6204 44.6566 25.743C44.5787 23.8694 44.3161 22.5904 43.9334 21.4713C43.5346 20.3138 43.0027 19.3318 42.1369 18.3535C41.2711 17.3745 40.4052 16.7732 39.3805 16.324C38.3882 15.8888 37.2564 15.5921 35.5993 15.5063C33.939 15.4209 33.4104 15.4 29.1818 15.4H29.1866ZM27.7903 18.5717C28.0614 18.5712 28.3531 18.5714 28.6679 18.5715L29.1866 18.5717C33.3427 18.5717 33.8352 18.5886 35.4764 18.6729C36.9941 18.7514 37.8178 19.0381 38.3665 19.279C39.0928 19.598 39.6107 19.9793 40.1552 20.5954C40.7 21.2114 41.0372 21.798 41.32 22.6194C41.5331 23.239 41.787 24.1704 41.8561 25.8864C41.9306 27.7418 41.9469 28.2991 41.9469 32.9962C41.9469 37.6932 41.9306 38.2505 41.8561 40.1059C41.7867 41.8219 41.5331 42.7533 41.32 43.3729C41.0379 44.1943 40.7 44.7791 40.1552 45.3947C39.6104 46.0108 39.0932 46.3921 38.3665 46.7111C37.8184 46.9531 36.9941 47.2391 35.4764 47.3176C33.8356 47.4019 33.3427 47.4202 29.1866 47.4202C25.0303 47.4202 24.5377 47.4019 22.8968 47.3176C21.3792 47.2384 20.5555 46.9516 20.0065 46.7107C19.2801 46.3917 18.7613 46.0104 18.2165 45.3944C17.6717 44.7784 17.3344 44.1932 17.0516 43.3715C16.8386 42.7518 16.5847 41.8204 16.5156 40.1044C16.441 38.2491 16.4261 37.6917 16.4261 32.9918C16.4261 28.2918 16.441 27.7374 16.5156 25.882C16.585 24.166 16.8386 23.2346 17.0516 22.6142C17.3338 21.7929 17.6717 21.2062 18.2165 20.5902C18.7613 19.9742 19.2801 19.5929 20.0065 19.2731C20.5552 19.0311 21.3792 18.7451 22.8968 18.6663C24.3328 18.593 24.8892 18.571 27.7903 18.5673V18.5717ZM35.6276 23.6054C35.6276 22.439 36.4642 21.4941 37.4954 21.4941V21.4933C38.5266 21.4933 39.3633 22.4393 39.3633 23.6054C39.3633 24.7714 38.5266 25.7174 37.4954 25.7174C36.4642 25.7174 35.6276 24.7714 35.6276 23.6054ZM29.1866 23.9618C24.7722 23.9618 21.1931 28.0087 21.1931 33.0002C21.1931 37.9917 24.7722 42.0368 29.1866 42.0368C33.6011 42.0368 37.1789 37.9917 37.1789 33.0002C37.1789 28.0087 33.6008 23.9618 29.1863 23.9618H29.1866ZM34.3752 33.0002C34.3752 29.7599 32.052 27.1335 29.1866 27.1335C26.321 27.1335 23.9981 29.7599 23.9981 33.0002C23.9981 36.2401 26.321 38.8669 29.1866 38.8669C32.052 38.8669 34.3752 36.2401 34.3752 33.0002Z" fill="white"/>
</g>
</g>
</g>
</g>
</svg>
