<svg width="59" height="66" viewBox="0 0 59 66" fill="none" xmlns="http://www.w3.org/2000/svg">
<g id="Telegram">
<g id="Telegram_2">
<path id="Oval" d="M29.1852 66C45.3037 66 58.3704 51.2254 58.3704 33C58.3704 14.7746 45.3037 0 29.1852 0C13.0667 0 0 14.7746 0 33C0 51.2254 13.0667 66 29.1852 66Z" fill="#0F0F0F" fill-opacity="0.941176"/>
<path id="Shape" d="M23.8346 48.125C22.8891 48.125 23.0497 47.7213 22.7236 46.7034L19.9432 36.3566L41.3457 22" fill="#C8DAEA"/>
<path id="Shape_2" d="M23.8346 48.125C24.5642 48.125 24.8866 47.7477 25.2938 47.3L29.1852 43.0216L24.3312 39.7119" fill="#A9C9DD"/>
<path id="Shape_3" d="M24.3307 39.7127L36.0923 49.5382C37.4345 50.3756 38.4032 49.942 38.7375 48.1293L43.5251 22.6194C44.0152 20.3974 42.776 19.3896 41.492 20.0487L13.3794 32.3057C11.4604 33.176 11.4716 34.3865 13.0296 34.9259L20.2439 37.4719L36.9459 25.5576C37.7343 25.0169 38.458 25.3076 37.864 25.9036" fill="url(#paint0_linear_37_225)"/>
</g>
</g>
<defs>
<linearGradient id="paint0_linear_37_225" x1="25.5317" y1="35.0271" x2="29.424" y2="46.1621" gradientUnits="userSpaceOnUse">
<stop stop-color="#EFF7FC"/>
<stop offset="1" stop-color="white"/>
</linearGradient>
</defs>
</svg>
