<svg width="59" height="66" viewBox="0 0 59 66" fill="none" xmlns="http://www.w3.org/2000/svg">
<g id="Twitter">
<g id="Twitter_2">
<path id="back" d="M0 33C0 14.7746 13.0667 0 29.1852 0C45.3037 0 58.3704 14.7746 58.3704 33C58.3704 51.2254 45.3037 66 29.1852 66C13.0667 66 0 51.2254 0 33Z" fill="#0F0F0F"/>
<path id="Shape" d="M28.3111 26.8228L28.3723 27.9647L27.3516 27.8249C23.6362 27.2889 20.3903 25.4712 17.6343 22.4184L16.287 20.9037L15.9399 22.0223C15.205 24.5158 15.6746 27.1491 17.2056 28.9201C18.0222 29.8989 17.8385 30.0387 16.4299 29.4561C15.9399 29.2697 15.5112 29.1299 15.4704 29.1998C15.3275 29.3629 15.8175 31.4835 16.2053 32.3225C16.7361 33.4876 17.8181 34.6295 19.0021 35.3053L20.0024 35.8413L18.8184 35.8646C17.6752 35.8646 17.6343 35.8879 17.7568 36.3773C18.1651 37.892 19.7779 39.5 21.5743 40.1991L22.84 40.6884L21.7376 41.4341C20.1045 42.5061 18.1855 43.112 16.2666 43.1586C15.3479 43.1819 14.5926 43.2751 14.5926 43.345C14.5926 43.5781 17.0832 44.8831 18.5326 45.3958C22.8808 46.9105 28.0457 46.258 31.9244 43.6713C34.6804 41.8303 37.4363 38.1716 38.7224 34.6295C39.4165 32.7419 40.1106 29.293 40.1106 27.6384C40.1106 26.5665 40.1719 26.4267 41.3151 25.145C41.9888 24.3992 42.6216 23.5836 42.7441 23.3506C42.9482 22.9078 42.9278 22.9078 41.8867 23.304C40.1515 24.0031 39.9065 23.9099 40.7639 22.8612C41.3967 22.1155 42.1521 20.7639 42.1521 20.3677C42.1521 20.2978 41.8459 20.4143 41.4988 20.6241C41.1314 20.8571 40.3148 21.2067 39.7023 21.4164L38.6 21.8125L37.5997 21.0435C37.0485 20.6241 36.2727 20.158 35.8644 20.0182C34.8233 19.6919 33.231 19.7385 32.2919 20.1114C29.7401 21.16 28.1274 23.8633 28.3111 26.8228Z" fill="white"/>
</g>
</g>
</svg>
