<?xml version="1.0" encoding="utf-8"?>
<!-- Generator: Adobe Illustrator 27.6.1, SVG Export Plug-In . SVG Version: 6.00 Build 0)  -->
<svg version="1.1" id="Шар_1" xmlns="http://www.w3.org/2000/svg" xmlns:xlink="http://www.w3.org/1999/xlink" x="0px" y="0px"
	 viewBox="0 0 768 396" style="enable-background:new 0 0 768 396;" xml:space="preserve">
<style type="text/css">
	.st0{fill:#1D1D1B;}
</style>
<path class="st0" d="M659.6,1.6c-4.4,1.2-5.1,1.9-4.7,4.8c0.3,2.4,1.3,3.7,3.7,4.3c3.7,0.9,5.2,5.1,2.4,6.8
	c-0.9,0.7-4.9,2.1-8.9,3.3c-6,1.9-7.3,1.9-8.3,0.4c-1.9-2.9-1.3-6.5,0.8-6.5c2.5,0,2.7-6.5,0.1-7.5c-2.9-1.1-12.8,2-12.8,4.1
	c0,3.7,1.7,6,4.7,6c2.9,0,6,4.5,4.1,6.3c-0.8,0.9-15.3,4.4-18.3,4.4c-3.6,0-4.4-4.3-1.3-6.7c2-1.5,2.5-2.9,1.9-5.2
	c-0.7-2.8-1.3-2.9-6.3-2.3c-6.9,1.2-8.9,3.1-7.3,7.3c0.9,2.1,2,2.9,3.7,2.4c1.6-0.4,2.9,0.1,3.3,1.3c1.3,3.5,0.8,4.4-2.5,4.4
	c-2.3,0-4.3,1.6-7.2,5.7c-2.3,3.3-6.4,7.1-9.7,8.7c-3.2,1.6-49.9,14.4-103.7,28.4C439.5,86,386.7,99.7,376,102.7
	c-44.9,12-61.1,16-64.5,16c-5.6,0-8.5-2.3-10.3-7.7c-1.2-4.3-1.1-6.7,1.5-15.1c7.7-25.6,0-45.2-19.3-49.2
	c-17.7-3.7-35.7,4.1-70.7,30.7c-16.8,12.8-24.5,16.7-38.9,19.6c-13.7,2.8-25.3,1.2-57.1-7.7c-20.3-5.6-26.4-6.8-39.5-7.5
	c-50.5-2.5-79.3,25.1-76.8,73.6c1.6,27.9,11.7,59.2,28,86c10,16.5,31.6,39.7,49.2,52.8c28.9,21.5,60.3,24.7,84.9,8.7
	c5.2-3.5,5.7-4.1,3.5-4.8c-15.6-5.2-31.7-16.8-39.2-28.4c-7.3-11.5-9.7-20.5-9.2-34.9c0.4-11.3,0.9-13.6,5.1-21.1
	c2.8-5.5,6.8-10.3,11.2-13.7c14.5-11.7,24-14.4,50.9-14.8c19.7-0.4,20.1-0.5,24.9-4.1c5.9-4.4,8.7-9.6,13.5-24.9
	c7.1-22.1,14.1-27.7,33.3-26.3c6,0.5,14.1,1.9,18.1,2.9c4,1.2,14.8,2.4,24,2.8c29.1,1.5,49.9-2.9,112.4-23.3
	c65.9-21.6,123.6-38.8,195.6-58.3c52-14,55.7-14,70.7,2.3l7.3,7.9l12-0.9c11.9-1.1,12-1.1,12.4-4.8c0.8-6.3-5.7-17.9-14.9-26.9
	c-8.7-8.4-11.5-14.5-9.5-20.7c0.5-1.5,0.5-2.7,0.3-2.7c-0.3,0-4.7,1.9-9.6,4.1c-4.9,2.1-9.1,3.9-9.3,3.6c-0.1-0.3-0.8-1.7-1.2-3.5
	c-0.8-2.1-0.4-2.9,1.2-2.9c2.8,0,3.9-3.2,2-6.5C666.4-0.3,666.7-0.3,659.6,1.6z"/>
<path class="st0" d="M208,202.8c-14.3,2.8-26.7,12.4-32.4,25.1c-4.1,9.1-4,27.5,0.3,37.1c3.6,8.3,13.6,18,22.5,22.1
	c5.3,2.5,8.7,2.9,21.6,2.9c14.1,0,15.9-0.4,22.3-3.7l6.9-3.6l0.4-18.7l0.4-18.8l-15.3,0.4l-15.3,0.4l-0.4,5.3
	c-0.5,6.1,1.9,8.7,8.7,8.7c4.4,0,4.4,0,4.4,6.5c0,6.4-0.1,6.7-4.8,8.1c-6.7,2.3-17.2,0.8-23.2-3.2c-10.7-7.1-14.7-26.3-8.3-39.5
	c6.3-12.9,22-17.2,37.3-10c3.9,1.7,7.9,2.9,8.8,2.5c1.1-0.4,3.5-3.1,5.3-5.9c3.1-4.7,3.2-5.2,1.1-7.1c-3.9-3.3-12.7-7.2-20-8.8
	C220.3,201.2,216.5,201.1,208,202.8z"/>
<path class="st0" d="M265.6,234.3c0.4,29.6,0.5,32.1,3.3,37.1c4.3,7.9,9.3,12.7,17.5,16.3c6.4,2.9,8.5,3.3,18.8,2.8
	c13.3-0.7,21.3-4.3,27.6-12.4c6.5-8.5,7.1-12.4,7.2-45.1v-30.3h-10h-10v29.6c0,32.7-0.4,34.3-7.9,39.3c-5.6,3.9-12.7,4-18.5,0.4
	c-7.5-4.5-8.3-8.4-8.3-40.7v-28.7h-10.1h-10.1L265.6,234.3z"/>
<path class="st0" d="M358.9,246.3l0.4,43.7l9.7,0.4l9.6,0.4v-44.1v-44h-10h-10L358.9,246.3z"/>
<path class="st0" d="M392,210.7v8h12.7h12.7v36v36.1l9.7-0.4l9.6-0.4l0.4-35.7l0.3-35.6h12h12v-8v-8h-34.7H392V210.7z"/>
<path class="st0" d="M473.3,245.6c-9.2,23.5-16.8,43.3-17.1,44c-0.7,1.5,15.3,1.3,18.3-0.3c1.3-0.7,3.9-5.2,5.6-10l3.1-8.7h16.9
	h16.9l2.9,8.7c1.6,4.8,4,9.3,5.3,10c2.3,1.2,18.7,2,18.7,0.8c0-0.3-6.9-18.4-15.5-40.3c-8.5-22-16-41.5-16.8-43.6
	c-1.3-3.5-1.6-3.6-11.6-3.6H490L473.3,245.6z M506.4,239.1c3.1,9.1,5.6,16.8,5.6,17.3c0,0.5-5.5,0.9-12.1,0.9
	c-9.2,0-12-0.4-11.5-1.7c0.3-0.8,2.9-8.7,5.7-17.3c2.8-8.5,5.5-15.6,5.9-15.6S503.3,230,506.4,239.1z"/>
<path class="st0" d="M554.7,205.2c0,1.6,0,21.2,0,43.7l-0.1,41.1l9.5,0.4l9.3,0.4v-16.1c0-13.6,0.4-16.3,2.1-16.9
	c5.3-2,9.1,1.5,17.5,16.3c4.5,8,9.3,15.1,10.7,15.6c3.6,1.3,20.4,1.2,20.4-0.3c0-2.3-18.9-32-21.6-33.9c-2.7-1.9-2.5-2,1.1-3.9
	c11.3-5.9,16.5-19.3,12.4-31.7c-2.1-6.4-5.7-9.9-13.6-13.3c-6-2.7-9.7-3.2-27.2-3.6C555.1,202.4,554.7,202.4,554.7,205.2z
	 M594,221.3c3.9,3.7,4.9,8.9,2.7,14.3c-2.7,6.3-7.1,8.7-15.6,8.1l-7.1-0.4l-0.4-11.2c-0.3-6.1,0-12.1,0.4-13.2
	C575.2,215.9,590,217.6,594,221.3z"/>
<path class="st0" d="M291.2,311.2c-12,5.2-15.6,23.3-6.5,32.8c2,2.1,7.3,5.1,11.9,6.7c13.5,4.8,20.9,8.4,22.9,11.2
	c2.7,3.7,2.4,14.9-0.4,19.7c-6.4,10.9-26.8,12.1-37.3,2.1c-2.4-2.3-3.5-2.5-4.7-1.3c-1.2,1.2-0.9,2.3,1.1,4.4
	c4.3,4.9,12.4,7.9,21.9,7.9c10.4,0,16.1-2.5,21.9-9.7c3.3-4.1,4.1-6.5,4.5-13.5c0.5-7.9,0.3-8.7-3.7-13.2c-3.1-3.5-7.2-5.9-15.1-8.9
	c-15.3-5.7-18.8-7.6-21.3-12c-2.9-4.8-2.8-8.9,0.1-14.5c5.2-9.6,17.2-12,29.5-6c3.7,2,7.3,3.2,7.7,2.8c1.6-1.7-1.1-4.9-6.1-7.6
	C311.2,308.8,297.6,308.4,291.2,311.2z"/>
<path class="st0" d="M370.3,311.2c-18,6.4-27.5,23.1-26,45.5c0.8,13.1,5.7,22.9,14.5,30c8,6.3,13.6,8,25.9,8
	c10.7-0.1,17.3-2.1,24.1-7.3c3.5-2.7,4.4-4,3.3-5.1c-1.2-1.2-2.1-1.1-3.9,0.1c-1.2,0.9-5.5,3.2-9.3,5.1c-6,2.9-8.5,3.5-16,2.9
	c-14.4-0.8-24.3-7.3-30.1-19.7c-4.3-8.9-4-28.9,0.4-37.3c7.2-13.7,15.9-19.2,30.8-19.2c8.4-0.1,11.2,0.5,17.7,3.7
	c5.2,2.5,8.3,3.3,9.2,2.4c1.5-1.5-4.1-5.9-11.5-8.9C393.6,308.8,377.1,308.8,370.3,311.2z"/>
<path class="st0" d="M433.3,352c0,41.7,0,42.7,2.7,42.7c2.5,0,2.7-0.9,2.7-20.7v-20.7l26.8,0.3l26.9,0.4l0.1,20
	c0.1,19.1,0.3,20,2.8,20c2.7,0,2.7-0.9,2.7-42s0-42-2.7-42c-2.5,0-2.7,0.9-2.7,19.7v19.6h-26.9h-27.1v-20c0-19.1-0.1-20-2.7-20
	C433.3,309.3,433.3,310.3,433.3,352z"/>
<path class="st0" d="M546.3,311.2c-10.5,3.9-19.9,13.6-23.1,24.3c-2.5,8.5-2.4,25.3,0.4,33.7c2.7,8.3,9.2,16.3,17.5,21.1
	c5.1,2.9,8.1,3.7,17.7,4.1c10.1,0.5,12.5,0.1,18.8-2.7c9.1-4.1,15.2-10.4,19.6-19.7c2.9-6.3,3.5-9.1,3.3-20c0-10.7-0.5-13.9-3.3-20
	c-6.9-15.1-19.1-22.7-35.9-22.5C555.9,309.5,549.1,310.3,546.3,311.2z M571.7,315.3c8.9,2.7,15.2,8.3,19.9,17.7
	c3.2,6.4,3.6,9.1,3.6,18.9c-0.1,17.3-6,28.4-18.5,35.1c-4.1,2.3-7.7,2.9-16,2.9c-9.3,0-11.5-0.5-16.9-3.7
	c-12-6.9-17.1-17.3-17.1-34.5c0-9.2,0.5-11.9,4-19.2C538.4,316.4,553.7,310,571.7,315.3z"/>
<path class="st0" d="M634.2,312.7c-8.9,4.3-14.3,9.9-18.5,18.9c-2.3,4.8-2.8,8.7-2.8,20c0,12.7,0.4,14.7,3.7,21.6
	c6.8,13.7,19.1,21.1,35.5,21.1c11.1,0,17.1-1.9,24.9-7.9c16.7-12.7,20.4-42.5,7.5-61.3c-7.3-10.8-16-15.2-30.8-15.9
	C643.3,308.9,641.6,309.1,634.2,312.7z M667.7,316.7c6.4,3.2,12.9,10.3,16.1,17.3c3.1,6.7,3.2,28.4,0.1,35.1
	c-6.9,15.7-23.7,24-40.8,19.9c-9.6-2.3-16.8-8-21.2-17.1c-3.3-6.7-3.7-9.1-3.7-20.3c0-10,0.5-13.9,2.8-18.7
	c3.9-8.3,11.6-15.6,18.9-18C648.2,312.3,660.8,313.1,667.7,316.7z"/>
<path class="st0" d="M722.3,310.3c-0.5,0.4-0.9,19.6-0.9,42.7v41.7h22.5c18.1,0,22.7-0.4,23.2-1.9c0.4-1.1,0.4-2.3,0-2.7
	c-0.5-0.4-9.7-0.8-20.7-0.8h-19.7v-40c0-32.4-0.4-40-1.7-40C723.9,309.3,722.7,309.7,722.3,310.3z"/>
</svg>
